<svg xmlns:xlink="http://www.w3.org/1999/xlink" data-name="Layer 1" xmlns="http://www.w3.org/2000/svg" viewBox="0 0 24 24" class="MuiSvgIcon-root" focusable="false" aria-hidden="true" width="24"  height="24" ><path d="M21 9.8a1 1 0 00-.83-.68l-5.2-.5-2-5a1 1 0 00-.55-.55.94.94 0 00-1.21.55l-2 5-5.2.5a1 1 0 00-.82.68 1 1 0 00.28 1.06l3.93 3.6-1.3 5.32a1 1 0 00.37 1A1 1 0 007 21a1 1 0 00.49-.14l4.51-2.8 4.48 2.8a.94.94 0 001.05-.05 1 1 0 00.37-1l-1.15-5.32 3.93-3.6A1 1 0 0021 9.8zm-5 3.84a1 1 0 00-.3 1l1.09 5-4.3-2.64a.93.93 0 00-1 0l-4.21 2.64 1.09-5a1 1 0 00-.3-1l-3.71-3.4 4.91-.46a1 1 0 00.79-.6L12 4.45l1.93 4.73a1 1 0 00.8.6l4.9.47z" fill-opacity="0.54" fill="#000000"></path></svg>