<svg xmlns:xlink="http://www.w3.org/1999/xlink" data-name="Layer 1" xmlns="http://www.w3.org/2000/svg" viewBox="0 0 24 24" class="MuiSvgIcon-root" focusable="false" aria-hidden="true" width="24"  height="24" ><path d="M11.46 12.58l-.13.14a1 1 0 01-.83.3.61.61 0 01-.43-.19.55.55 0 01-.13-.41 1.68 1.68 0 010-.2q0-.11.06-.27l.4-1.35-.2.17a4.18 4.18 0 00-.29.55 19 19 0 00-.8 2.47c-.07.27-.18.4-.34.42a.34.34 0 01-.25-.08.69.69 0 01-.2-.24.88.88 0 01-.1-.37 1.37 1.37 0 010-.35l.63-4.16a.15.15 0 01.15-.2l.69-.28a.06.06 0 01.09.07L9 13.75v.07-.23c0-.15.06-.29.09-.41.07-.32.14-.62.22-.89a7.37 7.37 0 01.28-.83 2.94 2.94 0 01.4-.71 1.07 1.07 0 01.22-.21.59.59 0 01.4-.19.26.26 0 01.23.12.68.68 0 01.06.31 2 2 0 01-.06.39l-.34 1.12a2.71 2.71 0 00-.05.34c0 .14 0 .22.14.22a.52.52 0 00.17 0l.15-.06.16-.08.25-.14.14.01zm6.38-.78a4.51 4.51 0 01-1.21 3.14 4.16 4.16 0 01-3.15 1.37 4.11 4.11 0 01-3.14-1.37 5.48 5.48 0 01-.39-.48l-.11.75a1.27 1.27 0 01-1 1.05l-.05-.09v.1h-.15a1.56 1.56 0 01-.81-.19 1.23 1.23 0 01-.5-.51 1.47 1.47 0 01-.2-.57.13.13 0 010-.06 2.14 2.14 0 010-.52h.1-.1L8 8.48a.66.66 0 01.41-.6L10 7.39a.67.67 0 01.87.72v.08a4.17 4.17 0 012.63-.88 4.12 4.12 0 013.14 1.35 4.45 4.45 0 011.2 3.14zm-9 4.37zm8.58-4.37A4 4 0 0016.27 9a3.84 3.84 0 00-5.58 0l-.31.36-.22.29.23-1.65a.17.17 0 00-.07-.17.19.19 0 00-.18 0l-1.54.49c-.11 0-.12.12-.13.2l-.88 5.88a2.13 2.13 0 000 .45v.07a.94.94 0 00.13.41.84.84 0 00.33.32 1.15 1.15 0 00.56.12h.08s.59-.12.65-.66l.33-2.28.13.36a4 4 0 00.86 1.4 3.64 3.64 0 002.79 1.22 3.67 3.67 0 002.8-1.22 4 4 0 001.12-2.79zm-2.62-1.38a2.23 2.23 0 010 2.75 1.62 1.62 0 01-1.31.66 1.6 1.6 0 01-1.32-.65 2.18 2.18 0 01-.47-1.38 2.14 2.14 0 01.47-1.39 1.71 1.71 0 012.64 0zm0 1.38a1.63 1.63 0 00-.37-1.08 1.15 1.15 0 00-.95-.45 1.17 1.17 0 00-1 .44 1.81 1.81 0 000 2.18 1.17 1.17 0 001.89 0 1.65 1.65 0 00.43-1.09zm6.2.2a9 9 0 11-9-9 9 9 0 019 9zm-.57 0A8.43 8.43 0 1012 20.43 8.44 8.44 0 0020.43 12zm-.73 0A7.7 7.7 0 1112 4.3a7.72 7.72 0 017.7 7.7zm-.57 0A7.13 7.13 0 1012 19.13 7.14 7.14 0 0019.13 12z" fill="#000000" fill-opacity="0.54"></path></svg>