<svg xmlns:xlink="http://www.w3.org/1999/xlink" xmlns="http://www.w3.org/2000/svg" width="24" height="24" class="MuiSvgIcon-root" focusable="false" viewBox="0 0 24 24" aria-hidden="true"><g data-name="Group 28601" fill-opacity="0.54" fill="#000000"><path data-name="Rectangle 4589" fill="none" d="M0 0h24v24H0z" fill-opacity="0.54"></path><g data-name="Group 28594" fill-opacity="0.54"><g data-name="Group 28589" fill-opacity="0.54"><g data-name="Group 28588" fill-opacity="0.54"><path data-name="Path 20408" d="M11.991 11.37a1.116 1.116 0 111.116-1.116.393.393 0 10.786 0 1.9 1.9 0 00-1.508-1.862v-.5a.393.393 0 10-.786 0v.5a1.9 1.9 0 00.393 3.763 1.116 1.116 0 11-1.116 1.115.393.393 0 00-.786 0 1.9 1.9 0 001.508 1.858v.746a.393.393 0 00.786 0v-.746a1.9 1.9 0 00-.393-3.759z" stroke="#000000" stroke-width="0.1px" stroke-opacity="0.54" fill-opacity="0.54"></path></g></g><g data-name="Group 28591" fill-opacity="0.54"><g data-name="Group 28590" fill-opacity="0.54"><path data-name="Path 20409" d="M18.381 5.667l-.032-.032A8.991 8.991 0 105.633 18.347a8.991 8.991 0 0012.748-12.68zm-6.39 14.523a8.2 8.2 0 118.2-8.2 8.212 8.212 0 01-8.2 8.2z" stroke="#000000" stroke-width="0.1px" stroke-opacity="0.54" fill-opacity="0.54"></path></g></g><g data-name="Group 28593" fill-opacity="0.54"><g data-name="Group 28592" fill-opacity="0.54"><path data-name="Path 20410" d="M11.991 5.096a6.89 6.89 0 106.894 6.89 6.9 6.9 0 00-6.894-6.89zm0 12.99a6.1 6.1 0 116.1-6.1 6.11 6.11 0 01-6.1 6.101z" stroke="#000000" stroke-width="0.1px" stroke-opacity="0.54" fill-opacity="0.54"></path></g></g></g></g></svg>