<svg xmlns:xlink="http://www.w3.org/1999/xlink" xmlns="http://www.w3.org/2000/svg" viewBox="0 0 24 24" class="MuiSvgIcon-root" focusable="false" aria-hidden="true" width="24"  height="24" ><path d="M17.1 12c0 2.8-2.3 5.1-5.1 5.1S6.9 14.8 6.9 12 9.2 6.9 12 6.9s5.1 2.3 5.1 5.1zm-1.2 0c0-2.2-1.8-3.9-3.9-3.9S8.1 9.8 8.1 12s1.8 3.9 3.9 3.9 3.9-1.7 3.9-3.9zM12 5.8c.3 0 .6-.3.6-.6V3.6c0-.3-.3-.6-.6-.6s-.6.3-.6.6v1.7c0 .3.3.5.6.5zm0 12.4c-.3 0-.6.3-.6.6v1.7c0 .3.3.6.6.6s.6-.3.6-.6v-1.7c0-.4-.3-.6-.6-.6zm8.4-6.8h-1.7c-.3 0-.6.3-.6.6s.3.6.6.6h1.7c.3 0 .6-.3.6-.6s-.3-.6-.6-.6zM5.8 12c0-.3-.3-.6-.6-.6H3.6c-.3 0-.6.3-.6.6s.3.6.6.6h1.7c.3 0 .5-.3.5-.6zm11-4.2c.1 0 .3-.1.4-.2l1.2-1.2c.2-.2.2-.6 0-.8-.2-.2-.6-.2-.8 0l-1.2 1.2c-.4.4-.1 1 .4 1zm-10 8.6l-1.2 1.2c-.4.4-.1 1 .4 1 .1 0 .3-.1.4-.2l1.2-1.2c.2-.2.2-.6 0-.8-.2-.2-.6-.2-.8 0zm10.4 0c-.2-.2-.6-.2-.8 0-.2.2-.2.6 0 .8l1.2 1.2c.1.1.3.2.4.2.5 0 .8-.6.4-1l-1.2-1.2zM6.8 7.6c.1.1.3.2.4.2.5 0 .8-.6.4-1L6.4 5.6c-.2-.2-.6-.2-.8 0-.2.2-.2.6 0 .8l1.2 1.2z" fill-opacity="0.54" fill="#000000"></path></svg>