<svg xmlns:xlink="http://www.w3.org/1999/xlink" xmlns="http://www.w3.org/2000/svg" width="24" height="24" class="MuiSvgIcon-root" focusable="false" viewBox="0 0 24 24" aria-hidden="true"><g data-name="Group 28297" fill-opacity="0.54" fill="#000000"><path data-name="Rectangle 4426" fill="none" d="M0 0h24v24H0z" fill-opacity="0.54"></path><g data-name="Group 12553" fill-opacity="0.54"><g data-name="Path 18204" fill-opacity="0.54"><path data-name="Path 20201" d="M9.112 11.943c-.077 0-.154 0-.232-.009a3.024 3.024 0 01-2.788-3.218V7.208a2.551 2.551 0 010-.414 3.022 3.022 0 016.027.455v1.485a2.53 2.53 0 010 .412 3.022 3.022 0 01-3.009 2.8zM9.104 5.09a1.929 1.929 0 00-1.92 1.783 2.011 2.011 0 000 .289V8.772a1.928 1.928 0 003.846.289 2.023 2.023 0 000-.289V7.204a1.946 1.946 0 00-.46-1.443A1.911 1.911 0 009.252 5.1c-.05-.004-.099-.01-.148-.01zM6.639 8.735z" fill-opacity="0.54"></path></g><g data-name="Ellipse 822" fill-opacity="0.54"><path data-name="Path 20202" d="M15.743 9.805a2.652 2.652 0 01-2.6-2.692 2.605 2.605 0 115.208 0 2.652 2.652 0 01-2.608 2.692zm0-4.291a1.558 1.558 0 00-1.51 1.6 1.513 1.513 0 103.021 0 1.558 1.558 0 00-1.511-1.6z" fill-opacity="0.54"></path></g><g data-name="Path 18205" fill-opacity="0.54"><path data-name="Path 20203" d="M16.594 17.914a.547.547 0 110-1.094h4.031a.3.3 0 00.276-.342 4.46 4.46 0 00-4.321-3.715 4.063 4.063 0 00-2.552.863.547.547 0 11-.664-.869 5.336 5.336 0 013.219-1.088h.007a5.556 5.556 0 015.39 4.623 1.383 1.383 0 01-1.12 1.6 1.414 1.414 0 01-.226.022z" fill-opacity="0.54"></path></g><g data-name="Path 18206" fill-opacity="0.54"><path data-name="Path 20204" d="M3.378 20.185A1.4 1.4 0 012 18.747a1.26 1.26 0 01.016-.168 7.251 7.251 0 017.048-6.355h.019a7.255 7.255 0 017.049 6.374 1.372 1.372 0 01-.257 1.02 1.388 1.388 0 01-.916.552 1.673 1.673 0 01-.178.016zm5.7-6.868a6.159 6.159 0 00-5.978 5.41.338.338 0 00.079.27.308.308 0 00.214.1h11.374a.316.316 0 00.226-.122.3.3 0 00.055-.225 6.162 6.162 0 00-5.975-5.432z" fill-opacity="0.54"></path></g></g></g></svg>