<svg xmlns:xlink="http://www.w3.org/1999/xlink" xmlns="http://www.w3.org/2000/svg" width="24" height="24" class="MuiSvgIcon-root" focusable="false" viewBox="0 0 24 24" aria-hidden="true"><g data-name="Group 28272" fill-opacity="0.87" fill="#000000"><path data-name="Rectangle 4485" fill="none" d="M0 0h24v24H0z" fill-opacity="0.87"></path><g data-name="Group 25252" fill-opacity="0.87"><g data-name="Rectangle 4295" fill-opacity="0.87"><path data-name="Path 20305" d="M20.608 21H8.869a.39.39 0 01-.391-.391V3.391A.391.391 0 018.869 3h11.739a.391.391 0 01.391.391v17.217a.391.391 0 01-.391.392zM9.26 20.217h10.957V3.783H9.261z" fill-opacity="0.87"></path></g><g data-name="Rectangle 4296" fill-opacity="0.87"><path data-name="Path 20306" d="M8.871 21h-5.48A.39.39 0 013 20.609V8.087a.391.391 0 01.391-.391h5.48a.391.391 0 01.391.391v12.522a.391.391 0 01-.391.391zm-5.087-.783h4.7V8.479h-4.7z" fill-opacity="0.87"></path></g><g data-name="Rectangle 4297" fill-opacity="0.87"><path data-name="Path 20307" d="M8.87 13.173H5.739a.39.39 0 01-.391-.391v-2.348a.391.391 0 01.391-.391h3.13a.391.391 0 01.391.391v2.348a.391.391 0 01-.39.391zm-2.739-.783h2.348v-1.564H6.131z" fill-opacity="0.87"></path></g><g data-name="Rectangle 4298" fill-opacity="0.87"><path data-name="Path 20308" d="M8.87 17.869H5.739a.39.39 0 01-.391-.391V15.13a.391.391 0 01.391-.391h3.13a.391.391 0 01.391.391v2.348a.391.391 0 01-.39.391zm-2.739-.783h2.348v-1.564H6.131z" fill-opacity="0.87"></path></g><g data-name="Rectangle 4299" fill-opacity="0.87"><path data-name="Path 20309" d="M16.695 21h-3.913a.39.39 0 01-.391-.391v-1.561a1.958 1.958 0 011.956-1.956h.783a1.959 1.959 0 011.957 1.956v1.565a.391.391 0 01-.392.387zm-3.522-.783h3.13v-1.169a1.175 1.175 0 00-1.174-1.174h-.783a1.175 1.175 0 00-1.172 1.174z" fill-opacity="0.87"></path></g><g data-name="Line 2175" fill-opacity="0.87"><path data-name="Path 20310" d="M11.997 6.131h-.78a.392.392 0 110-.783h.78a.392.392 0 010 .783z" fill-opacity="0.87"></path></g><g data-name="Line 2177" fill-opacity="0.87"><path data-name="Path 20311" d="M18.258 6.131h-.78a.392.392 0 110-.783h.78a.392.392 0 110 .783z" fill-opacity="0.87"></path></g><g data-name="Line 2178" fill-opacity="0.87"><path data-name="Path 20312" d="M11.997 8.479h-.78a.392.392 0 110-.783h.78a.392.392 0 010 .783z" fill-opacity="0.87"></path></g><g data-name="Line 2180" fill-opacity="0.87"><path data-name="Path 20313" d="M18.258 8.479h-.78a.392.392 0 110-.783h.78a.392.392 0 110 .783z" fill-opacity="0.87"></path></g><g data-name="Line 2181" fill-opacity="0.87"><path data-name="Path 20314" d="M11.997 10.826h-.78a.392.392 0 110-.783h.78a.392.392 0 010 .783z" fill-opacity="0.87"></path></g><g data-name="Line 2183" fill-opacity="0.87"><path data-name="Path 20315" d="M18.258 10.826h-.78a.392.392 0 110-.783h.78a.392.392 0 110 .783z" fill-opacity="0.87"></path></g><g data-name="Line 2184" fill-opacity="0.87"><path data-name="Path 20316" d="M11.997 13.174h-.78a.392.392 0 110-.783h.78a.392.392 0 010 .783z" fill-opacity="0.87"></path></g><g data-name="Line 2186" fill-opacity="0.87"><path data-name="Path 20317" d="M18.258 13.174h-.78a.392.392 0 110-.783h.78a.392.392 0 110 .783z" fill-opacity="0.87"></path></g><g data-name="Line 2187" fill-opacity="0.87"><path data-name="Path 20318" d="M11.997 15.522h-.78a.392.392 0 110-.783h.78a.392.392 0 010 .783z" fill-opacity="0.87"></path></g><g data-name="Line 2176" fill-opacity="0.87"><path data-name="Path 20319" d="M15.128 6.131h-.783a.392.392 0 110-.783h.783a.392.392 0 110 .783z" fill-opacity="0.87"></path></g><g data-name="Line 2179" fill-opacity="0.87"><path data-name="Path 20320" d="M15.128 8.479h-.783a.392.392 0 110-.783h.783a.392.392 0 110 .783z" fill-opacity="0.87"></path></g><g data-name="Line 2182" fill-opacity="0.87"><path data-name="Path 20321" d="M15.128 10.826h-.783a.392.392 0 110-.783h.783a.392.392 0 110 .783z" fill-opacity="0.87"></path></g><g data-name="Line 2185" fill-opacity="0.87"><path data-name="Path 20322" d="M15.128 13.174h-.783a.392.392 0 110-.783h.783a.392.392 0 110 .783z" fill-opacity="0.87"></path></g><g data-name="Line 2188" fill-opacity="0.87"><path data-name="Path 20323" d="M15.128 15.522h-.783a.392.392 0 110-.783h.783a.392.392 0 110 .783z" fill-opacity="0.87"></path></g><g data-name="Line 2189" fill-opacity="0.87"><path data-name="Path 20324" d="M18.258 15.522h-.78a.392.392 0 110-.783h.78a.392.392 0 110 .783z" fill-opacity="0.87"></path></g></g></g></svg>