<svg xmlns:xlink="http://www.w3.org/1999/xlink" xmlns="http://www.w3.org/2000/svg" width="24" height="24" class="MuiSvgIcon-root" focusable="false" viewBox="0 0 24 24" aria-hidden="true"><g data-name="Group 29031" fill-opacity="0.54" fill="#000000"><g data-name="Group 28715" fill-opacity="0.54"><path data-name="Rectangle 4595" fill="none" d="M0 0h24v24H0z" fill-opacity="0.54"></path><g data-name="Group 28574" fill-opacity="0.54"><g data-name="Group 28570" fill-opacity="0.54"><path data-name="Path 20399" d="M5.879 21h8.266a1.879 1.879 0 001.879-1.875v-3.75a.376.376 0 00-.751 0v3.75a1.127 1.127 0 01-1.127 1.125H5.88a1.127 1.127 0 01-1.127-1.125V4.875A1.127 1.127 0 015.879 3.75h8.266a1.127 1.127 0 011.127 1.125v3.75a.376.376 0 00.751 0v-3.75A1.879 1.879 0 0014.144 3H5.878a1.879 1.879 0 00-1.879 1.875v14.25A1.879 1.879 0 005.879 21z" stroke="#000000" stroke-width="0.25px" stroke-opacity="0.54" fill-opacity="0.54"></path></g><g data-name="Group 28571" fill-opacity="0.54"><path data-name="Path 20400" d="M9.353 12.375h11.271a.376.376 0 100-.751H9.353a.376.376 0 000 .751z" stroke="#000000" stroke-width="0.25px" stroke-opacity="0.54" fill-opacity="0.54"></path></g><g data-name="Group 28572" fill-opacity="0.54"><path data-name="Path 20401" d="M12.359 15.381a.375.375 0 00.266-.641L9.885 12l2.74-2.74a.376.376 0 10-.531-.531l-3.006 3.006a.376.376 0 000 .531l3.006 3.006a.377.377 0 00.265.109z" stroke="#000000" stroke-width="0.25px" stroke-opacity="0.54" fill-opacity="0.54"></path></g></g></g></g></svg>