<svg xmlns:xlink="http://www.w3.org/1999/xlink" xmlns="http://www.w3.org/2000/svg" viewBox="0 0 24 24" class="MuiSvgIcon-root MuiSvgIcon-colorPrimary" focusable="false" aria-hidden="true" width="24"  height="24" ><path stroke="#24A8D8" stroke-width="0.2px" d="M12 22c-.7 0-1.5-.1-2.2-.2C4.5 20.6 1 15.2 2.2 9.9 3.4 4.5 8.8 1 14.1 2.2c5.4 1.2 8.8 6.5 7.6 11.9-.6 2.6-2.1 4.8-4.4 6.3l-.2-.3.2.3C15.8 21.5 13.9 22 12 22zm0-19.4c-5.2 0-9.4 4.2-9.4 9.4s4.2 9.4 9.4 9.4 9.4-4.2 9.4-9.4c0-1.8-.5-3.5-1.5-5-1.7-2.8-4.7-4.4-7.9-4.4zM14.3 13h0l-3.9-3.7h-.3L9 9.6c-.1 0-.2.2-.2.3v.1l3.8 3.8h0c.1.1.2.2.4.3.2.1.4.1.6.1.2 0 .4-.1.5-.2.1-.1.3-.2.3-.4.2-.2.1-.4-.1-.6h0zm-1.5 1.6h0L6.9 8.7h-.1c-.1 0-.2 0-.2.1l-1.1.3c-.1.1-.2.2-.2.3v.1l5.8 6h0c.1.1.3.2.4.3.2.1.4.1.6.1.2 0 .4-.1.5-.2.2-.1.3-.3.3-.4.2-.2.1-.4-.1-.7h0zm4.1-5c.7-.5 1.8-.5 2 .6-.6-.4-1.5.4-2 .9L15.2 13l-2.5-2.3c1.8-1.1 3.6-1.9 4.2-1.1" fill="#24A8D8"></path></svg>