<svg xmlns:xlink="http://www.w3.org/1999/xlink" xmlns="http://www.w3.org/2000/svg" width="24" height="24" class="MuiSvgIcon-root" focusable="false" viewBox="0 0 24 24" aria-hidden="true"><g data-name="Group 28277" fill="none"><path data-name="Rectangle 4474" d="M0 0h24v24H0z" fill="none"></path><g data-name="Group 28276" stroke="#24A8D8" stroke-miterlimit="10" fill="none"><path data-name="Path 5" d="M7.215 19.39V2.868a.854.854 0 01.836-.869h12.55a.854.854 0 01.836.869v16.521a2.561 2.561 0 01-2.505 2.609H5.21" stroke="#24A8D8" fill="none"></path><path data-name="Path 6" d="M5.1 21.999h0A2.145 2.145 0 013 19.815h0v-8.3a.859.859 0 01.842-.874H7.21v9.174a2.145 2.145 0 01-2.1 2.183z" stroke="#24A8D8" fill="none"></path><path data-name="Line 2" d="M10.363 5.156h7.418" stroke="#24A8D8" fill="none"></path><path data-name="Line 3" d="M10.363 8.972h7.418" stroke="#24A8D8" fill="none"></path><path data-name="Line 4" d="M10.363 12.804h7.418" stroke="#24A8D8" fill="none"></path></g></g></svg>