<svg xmlns:xlink="http://www.w3.org/1999/xlink" xmlns="http://www.w3.org/2000/svg" width="24" height="24" class="MuiSvgIcon-root" focusable="false" viewBox="0 0 24 24" aria-hidden="true"><g data-name="Group 28598" fill-opacity="0.54" fill="#000000"><path data-name="Rectangle 4587" fill="none" d="M0 0h24v24H0z" fill-opacity="0.54"></path><path data-name="Path 18214" d="M18.694 3.29h-.645a1.29 1.29 0 00-2.581 0H6.435a1.292 1.292 0 00-1.29 1.29v1.29h-.323a.323.323 0 000 .645h.323v1.29h-.323a.323.323 0 000 .645h.323v1.29h-.323a.323.323 0 000 .645h.323v1.29h-.323a.323.323 0 000 .645h.323v1.29h-.323a.323.323 0 000 .645h.323v1.29h-.323a.323.323 0 000 .645h.323v1.29h-.323a.323.323 0 000 .645h.323v1.29h-.323a.323.323 0 000 .645h.323v.645A1.292 1.292 0 006.435 22h12.259a1.292 1.292 0 001.29-1.29V4.581a1.292 1.292 0 00-1.29-1.291zm-2.581 0a.645.645 0 111.29 0v.968h-1.29zm0 1.613H17.4v8.71h-1.29zm0 9.355H17.4v.242l-.645 1.29-.645-1.29zm-9.032 7.1h-.645a.646.646 0 01-.645-.645v-.645h.323a.323.323 0 100-.645H5.79v-1.29h.323a.323.323 0 100-.645H5.79v-1.29h.323a.323.323 0 100-.645H5.79v-1.29h.323a.323.323 0 100-.645H5.79v-1.29h.323a.323.323 0 100-.645H5.79v-1.29h.323a.323.323 0 100-.645H5.79v-1.29h.323a.323.323 0 100-.645H5.79v-1.29h.323a.323.323 0 100-.645H5.79v-1.29a.646.646 0 01.645-.645h.645zm12.258-.645a.646.646 0 01-.645.645H7.726V3.935h7.742V5.87h-.323v-.645a.323.323 0 10-.645 0V9.1a.323.323 0 10.645 0V6.516h.323v8.065a.326.326 0 00.034.144l.968 1.935a.323.323 0 00.577 0l.968-1.935a.326.326 0 00.034-.144V3.935h.645a.646.646 0 01.645.645z" stroke="#000000" stroke-width="0.15px" stroke-opacity="0.54" fill-opacity="0.54"></path></g></svg>