<svg xmlns:xlink="http://www.w3.org/1999/xlink" xmlns="http://www.w3.org/2000/svg" width="24" height="24" class="MuiSvgIcon-root MuiSvgIcon-colorAction" focusable="false" viewBox="0 0 24 24" aria-hidden="true"><g data-name="Group 28283" fill-opacity="0.54" fill="#000000"><path data-name="Rectangle 4480" fill="none" d="M0 0h24v24H0z" fill-opacity="0.54"></path><g data-name="Vector Smart Object21" fill-opacity="0.54"><g data-name="Group 21" transform="translate(2 4)" fill="none" stroke="#000000" stroke-linecap="round" stroke-linejoin="round" stroke-opacity="0.54" fill-opacity="0.54"><path data-name="Path 44" d="M15.605 4.332a2.62 2.62 0 11-5.232 0V2.757a2.62 2.62 0 115.232 0z" stroke="#000000" fill="none" fill-opacity="0.54" stroke-opacity="0.54"></path><ellipse data-name="Ellipse 9" cx="2.18" cy="2.216" rx="2.18" ry="2.216" transform="translate(3.84 .443)" stroke="#000000" fill="none" fill-opacity="0.54" stroke-opacity="0.54"></ellipse><path data-name="Path 45" d="M8.805 10.302a5.085 5.085 0 00-3.653-1.45 5.261 5.261 0 00-5.136 4.3.872.872 0 00.863 1.019h5" stroke="#000000" fill="none" fill-opacity="0.54" stroke-opacity="0.54"></path><path data-name="Path 46" d="M12.984 9.734h0a7.015 7.015 0 00-6.907 6.082.886.886 0 00.871 1.007H19.02a.886.886 0 00.871-1.007 7.015 7.015 0 00-6.907-6.082z" stroke="#000000" fill="none" fill-opacity="0.54" stroke-opacity="0.54"></path></g></g></g></svg>