<svg xmlns:xlink="http://www.w3.org/1999/xlink" xmlns="http://www.w3.org/2000/svg" class="MuiSvgIcon-root" focusable="false" viewBox="0 0 24 24" aria-hidden="true" width="24" height="24"><g id="Group_28336" data-name="Group 28336" transform="translate(12732 11687)" fill-opacity="0.54" fill="#000000"><rect id="Rectangle_4498" data-name="Rectangle 4498" width="24" height="24" transform="translate(-12732 -11687)" fill="none" fill-opacity="0.54"></rect><g id="Group_28330" data-name="Group 28330" transform="translate(-12729 -11684)" fill-opacity="0.54"><g id="Group_28019" data-name="Group 28019" transform="translate(0 0)" fill-opacity="0.54"><path id="Path_20187" data-name="Path 20187" d="M0,16.1A1.9,1.9,0,0,0,1.9,18H16.1A1.9,1.9,0,0,0,18,16.1V1.9A1.9,1.9,0,0,0,16.1,0H1.9A1.9,1.9,0,0,0,0,1.9Zm16.1,1H1.9a1,1,0,0,1-1-1V13.73l3.413-3.413,2.917,2.917a.448.448,0,0,0,.636,0l5.267-5.267L17.1,11.931V16.1A1,1,0,0,1,16.1,17.1ZM1.9.9H16.1a1,1,0,0,1,1,1v8.757L13.45,7.01a.448.448,0,0,0-.636,0L7.547,12.277,4.631,9.36a.448.448,0,0,0-.636,0L.9,12.454V1.9A1,1,0,0,1,1.9.9Z" transform="translate(0 0)" fill-opacity="0.54"></path><path id="Path_20188" data-name="Path 20188" d="M91.724,76.149A2.324,2.324,0,1,0,89.4,73.824,2.327,2.327,0,0,0,91.724,76.149Zm0-3.735a1.41,1.41,0,1,1-1.41,1.41A1.412,1.412,0,0,1,91.724,72.414Z" transform="translate(-86.128 -68.832)" fill-opacity="0.54"></path></g></g></g></svg>