<svg xmlns="http://www.w3.org/2000/svg" class="MuiSvgIcon-root MuiSvgIcon-colorAction" focusable="false" viewBox="0 0 24 24" aria-hidden="true"><g data-name="Group 28282"><path data-name="Rectangle 4474" fill="none" d="M0 0h24v24H0z"/><g data-name="Vector Smart Object31"><g data-name="Group 22" fill="none" stroke="currentColor" stroke-linecap="round" stroke-linejoin="round"><path data-name="Path 47" d="M11.833 18.52h7.95a.877.877 0 00.883-.869v-1.852a.9.9 0 00-.7-.848c-2.038-.574-2.437-2.962-2.838-7.733-.218-2.6-1.767-5.216-5.3-5.216s-5.082 2.617-5.3 5.216c-.4 4.771-.8 7.16-2.838 7.733a.9.9 0 00-.7.848v1.852a.877.877 0 00.883.869z"/><path data-name="Path 48" d="M11.833 22h0a1.718 1.718 0 01-1.7-1.741v-1.74h3.391v1.741A1.718 1.718 0 0111.833 22z"/></g></g></g></svg>