<svg xmlns:xlink="http://www.w3.org/1999/xlink" xmlns="http://www.w3.org/2000/svg" width="24" height="24" class="MuiSvgIcon-root MuiSvgIcon-colorAction" focusable="false" viewBox="0 0 24 24" aria-hidden="true"><g data-name="Group 28282" fill-opacity="0.54" fill="#000000"><path data-name="Rectangle 4474" fill="none" d="M0 0h24v24H0z" fill-opacity="0.54"></path><g data-name="Vector Smart Object31" fill-opacity="0.54"><g data-name="Group 22" fill="none" stroke="#000000" stroke-linecap="round" stroke-linejoin="round" stroke-opacity="0.54" fill-opacity="0.54"><path data-name="Path 47" d="M11.833 18.52h7.95a.877.877 0 00.883-.869v-1.852a.9.9 0 00-.7-.848c-2.038-.574-2.437-2.962-2.838-7.733-.218-2.6-1.767-5.216-5.3-5.216s-5.082 2.617-5.3 5.216c-.4 4.771-.8 7.16-2.838 7.733a.9.9 0 00-.7.848v1.852a.877.877 0 00.883.869z" stroke="#000000" fill="none" fill-opacity="0.54" stroke-opacity="0.54"></path><path data-name="Path 48" d="M11.833 22h0a1.718 1.718 0 01-1.7-1.741v-1.74h3.391v1.741A1.718 1.718 0 0111.833 22z" stroke="#000000" fill="none" fill-opacity="0.54" stroke-opacity="0.54"></path></g></g></g></svg>