<svg xmlns:xlink="http://www.w3.org/1999/xlink" xmlns="http://www.w3.org/2000/svg" width="24" height="24" class="MuiSvgIcon-root" focusable="false" viewBox="0 0 24 24" aria-hidden="true"><g data-name="Group 28600" fill-opacity="0.54" fill="#000000"><path data-name="Rectangle 4588" fill="none" d="M0 0h24v24H0z" fill-opacity="0.54"></path><g data-name="Group 28587" fill-opacity="0.54"><g data-name="Group 28578" fill-opacity="0.54"><g data-name="Group 28577" fill-opacity="0.54"><path data-name="Path 20403" d="M17.988 3a3.011 3.011 0 103.011 3.011A3.014 3.014 0 0017.988 3zm0 5.27a2.259 2.259 0 112.255-2.259 2.261 2.261 0 01-2.255 2.259z" stroke="#000000" stroke-width="0.2px" stroke-opacity="0.54" fill-opacity="0.54"></path></g></g><g data-name="Group 28580" fill-opacity="0.54"><g data-name="Group 28579" fill-opacity="0.54"><path data-name="Path 20404" d="M17.988 14.977a3.011 3.011 0 103.011 3.011 3.014 3.014 0 00-3.011-3.011zm0 5.27a2.259 2.259 0 112.259-2.259 2.261 2.261 0 01-2.259 2.256z" stroke="#000000" stroke-width="0.2px" stroke-opacity="0.54" fill-opacity="0.54"></path></g></g><g data-name="Group 28582" fill-opacity="0.54"><g data-name="Group 28581" fill-opacity="0.54"><path data-name="Path 20405" d="M6.011 8.989A3.011 3.011 0 109.022 12a3.014 3.014 0 00-3.011-3.011zm0 5.27A2.259 2.259 0 118.27 12a2.261 2.261 0 01-2.259 2.259z" stroke="#000000" stroke-width="0.2px" stroke-opacity="0.54" fill-opacity="0.54"></path></g></g><g data-name="Group 28584" fill-opacity="0.54"><g data-name="Group 28583" fill-opacity="0.54"><path data-name="Path 20406" d="M16.003 7.006a.377.377 0 00-.505-.169l-7.331 3.666a.376.376 0 00.168.713.4.4 0 00.169-.039l7.331-3.666a.377.377 0 00.168-.505z" stroke="#000000" stroke-width="0.2px" stroke-opacity="0.54" fill-opacity="0.54"></path></g></g><g data-name="Group 28586" fill-opacity="0.54"><g data-name="Group 28585" fill-opacity="0.54"><path data-name="Path 20407" d="M15.833 16.493l-7.331-3.666a.377.377 0 00-.337.674l7.331 3.666a.377.377 0 00.337-.674z" stroke="#000000" stroke-width="0.2px" stroke-opacity="0.54" fill-opacity="0.54"></path></g></g></g></g></svg>