<svg xmlns:xlink="http://www.w3.org/1999/xlink" xmlns="http://www.w3.org/2000/svg" width="24" height="24" class="MuiSvgIcon-root MuiSvgIcon-colorAction" focusable="false" viewBox="0 0 24 24" aria-hidden="true"><g data-name="Group 28285" fill-opacity="0.54" fill="#000000"><path data-name="Rectangle 4482" fill="none" d="M0 0h24v24H0z" fill-opacity="0.54"></path><g data-name="Vector Smart Object15" fill-opacity="0.54"><g data-name="Group 19" fill="none" stroke="#000000" stroke-linecap="round" stroke-linejoin="round" stroke-opacity="0.54" fill-opacity="0.54"><path data-name="Path 34" d="M21.143 14.964v4.132a.852.852 0 01-.871.826H3.715" stroke="#000000" fill="none" fill-opacity="0.54" stroke-opacity="0.54"></path><path data-name="Path 35" d="M3.715 7.369h16.556a.852.852 0 01.871.826V11.5" stroke="#000000" fill="none" fill-opacity="0.54" stroke-opacity="0.54"></path><path data-name="Path 36" d="M2 7.528V18.27" stroke="#000000" fill="none" fill-opacity="0.54" stroke-opacity="0.54"></path><path data-name="Path 37" d="M3.715 4a1.654 1.654 0 100 3.305" stroke="#000000" fill="none" fill-opacity="0.54" stroke-opacity="0.54"></path><path data-name="Line 14" d="M2 8.132V5.653" stroke="#000000" fill="none" fill-opacity="0.54" stroke-opacity="0.54"></path><path data-name="Path 38" d="M18.295 7.306V4.827a.843.843 0 00-.857-.826H3.715" stroke="#000000" fill="none" fill-opacity="0.54" stroke-opacity="0.54"></path><path data-name="Path 39" d="M2 18.269a1.69 1.69 0 001.715 1.653" stroke="#000000" fill="none" fill-opacity="0.54" stroke-opacity="0.54"></path><path data-name="Path 40" d="M15.905 14.875a1.654 1.654 0 110-3.305" stroke="#000000" fill="none" fill-opacity="0.54" stroke-opacity="0.54"></path><path data-name="Path 41" d="M15.998 14.875h5.145a.843.843 0 00.857-.826v-1.653a.843.843 0 00-.857-.826h-5.145" stroke="#000000" fill="none" fill-opacity="0.54" stroke-opacity="0.54"></path></g></g></g></svg>